<svg xmlns="http://www.w3.org/2000/svg" viewBox="0 -4 32 40" x="0px" y="0px">
	<g data-name="MESH TOOL">
		<path fill="white" d="M29,2H3A1,1,0,0,0,2,3V29a1,1,0,0,0,1,1H29a1,1,0,0,0,1-1V3A1,1,0,0,0,29,2ZM14.34,28A26.84,26.84,0,0,1,12,21.37a7.35,7.35,0,0,1,3.64.29,9.84,9.84,0,0,0,4.49.53,28,28,0,0,0,2,5.81Zm2-8.19a9.29,9.29,0,0,0-4.62-.43,7.38,7.38,0,0,1,.44-3,9.63,9.63,0,0,0,.36-5.07,6.84,6.84,0,0,1,3.07.36,10.26,10.26,0,0,0,5,.46,7.22,7.22,0,0,1-.31,3.5,9.91,9.91,0,0,0-.52,4.59A7.76,7.76,0,0,1,16.37,19.81ZM4,14.3a26,26,0,0,1,6.58-2.68,7.67,7.67,0,0,1-.25,4,9.56,9.56,0,0,0-.55,4.12A27.45,27.45,0,0,0,4,22ZM17.7,4a26.48,26.48,0,0,1,2.58,6.18,8.15,8.15,0,0,1-3.9-.37,9,9,0,0,0-4.25-.47A28.16,28.16,0,0,0,10,4Zm4.5,12.37a9.28,9.28,0,0,0,.43-4.59A28.61,28.61,0,0,0,28,9.88v7.77a27.55,27.55,0,0,1-6.21,2.27A7.85,7.85,0,0,1,22.19,16.37ZM28,7.66a28.13,28.13,0,0,1-5.74,2.17A27.44,27.44,0,0,0,20,4h8ZM7.7,4a27,27,0,0,1,2.44,5.67A27,27,0,0,0,4,12V4ZM4,24.3a26.65,26.65,0,0,1,6-2.54A27.42,27.42,0,0,0,12.12,28H4ZM24.34,28a27.63,27.63,0,0,1-2.25-6.1,27.88,27.88,0,0,0,5.9-2V28Z" />
	</g>
</svg>
